<?xml version="1.0" encoding="UTF-8" standalone="no"?>
<svg width="46px" height="45px" viewBox="0 0 46 45" version="1.1" xmlns="http://www.w3.org/2000/svg" xmlns:xlink="http://www.w3.org/1999/xlink">
    <!-- Generator: Sketch 49.2 (51160) - http://www.bohemiancoding.com/sketch -->
    <title>Slice 1</title>
    <desc>Created with Sketch.</desc>
    <defs></defs>
    <g id="Page-1" stroke="none" stroke-width="1" fill="none" fill-rule="evenodd">
        <g id="noun_785592_cc" fill="#000000" fill-rule="nonzero">
            <g id="Group" transform="translate(0.176114, 0.000000)">
                <path d="M3.53109282,35.0716123 C1.32966338,37.2746475 0.228948662,41.8222784 0.00880571776,43.9456858 C-0.0616400243,44.6534882 0.660428832,45.1577975 1.29444051,44.8569814 C5.82057944,42.6981839 9.17555791,43.4944617 10.6020842,40.5570814 C11.5002674,38.6991 11.324153,36.3545043 9.8183753,34.9477469 C8.03962032,33.2932586 5.26581922,33.3374963 3.53109282,35.0716123 Z" id="Shape"></path>
                <path d="M43.7468058,0.982075925 C42.4435596,-0.327358642 40.3213816,-0.327358642 39.0181354,0.982075925 L11.6411589,28.4890494 C11.2889302,28.8429506 11.2889302,29.4091926 11.6411589,29.7542463 L15.1106117,33.2401734 C15.4628404,33.5940747 16.0264063,33.5940747 16.3698293,33.2401734 L43.7468058,5.74204753 C45.0588578,4.42376543 45.0588578,2.30035802 43.7468058,0.982075925 Z" id="Shape"></path>
            </g>
        </g>
    </g>
</svg>