<?xml version="1.0" encoding="UTF-8" standalone="no"?>
<svg width="47px" height="47px" viewBox="0 0 47 47" version="1.1" xmlns="http://www.w3.org/2000/svg" xmlns:xlink="http://www.w3.org/1999/xlink">
    <!-- Generator: Sketch 49.2 (51160) - http://www.bohemiancoding.com/sketch -->
    <title>Slice 1</title>
    <desc>Created with Sketch.</desc>
    <defs></defs>
    <g id="Page-1" stroke="none" stroke-width="1" fill="none" fill-rule="evenodd">
        <path d="M45.605287,44.6495535 L24.1597147,44.6495535 L45.0612657,23.6487535 C47.3421323,21.3575264 47.3421323,17.6281137 45.0612657,15.3359466 L31.510785,1.72159278 C30.4059025,0.611463885 28.936624,0 27.3737907,0 C25.8109573,0 24.3421466,0.61099389 23.2372641,1.72159278 L1.71029913,23.3507765 C-0.570099709,25.6424736 -0.570099709,29.3714163 1.71029913,31.6635834 L15.2607798,45.2784072 C16.3656623,46.3885361 17.834473,47 19.3973064,47 C19.400113,47 19.4029197,46.99953 19.4057263,46.99953 C19.4071296,46.99953 19.4080652,47 19.4094685,47 L45.6048192,47 C46.2508153,47 46.7742545,46.4740753 46.7742545,45.8250117 C46.7742545,45.1759482 46.2512831,44.6495535 45.605287,44.6495535 Z M24.8913134,3.38302617 C25.5546171,2.71704283 26.4363713,2.3499765 27.3737907,2.3499765 C28.31121,2.3499765 29.1938998,2.71657283 29.8572035,3.38302617 L43.4076842,16.99785 C44.7763913,18.3735263 44.7763913,20.6116439 43.4076842,21.9873201 L29.9643238,35.4945151 L11.447953,16.8902211 L24.8913134,3.38302617 Z M3.36434842,30.00168 C1.99564134,28.6260037 1.99564134,26.3878861 3.36434842,25.0122099 L9.79437147,18.5516545 L28.3107422,37.1554784 L21.8807192,43.6165038 C21.2174155,44.2824872 20.3356613,44.6495535 19.3977742,44.6495535 C18.459887,44.6495535 17.5781328,44.2824872 16.9148291,43.6165038 L3.36434842,30.00168 Z" id="Shape" fill="#494949" fill-rule="nonzero"></path>
    </g>
</svg>