<?xml version="1.0" encoding="UTF-8" standalone="no"?>
<svg width="46px" height="46px" viewBox="0 0 46 46" version="1.1" xmlns="http://www.w3.org/2000/svg" xmlns:xlink="http://www.w3.org/1999/xlink">
    <!-- Generator: Sketch 49.2 (51160) - http://www.bohemiancoding.com/sketch -->
    <title>Slice 1</title>
    <desc>Created with Sketch.</desc>
    <defs></defs>
    <g id="Page-1" stroke="none" stroke-width="1" fill="none" fill-rule="evenodd">
        <g id="Group-5" fill="#494949" fill-rule="nonzero">
            <path d="M31.3929864,9.88851869 C31.8826517,9.39885339 31.8826517,8.63715181 31.3929864,8.20189377 L23.3407126,0.149619953 L23.2318981,0.0952126971 L23.1774908,0.0408054416 C23.0142691,-0.0136018139 22.8510473,-0.0136018139 22.7422328,0.0408054416 L22.6334183,0.0952126971 L22.4701965,0.149619953 L22.3069748,0.312841719 C22.2525675,0.367248975 22.143753,0.42165623 22.0893457,0.476063486 L14.3635155,8.25630102 C13.8738502,8.74596632 13.8738502,9.5076679 14.3635155,9.94292594 C14.8531808,10.378184 15.6148823,10.4325912 16.0501404,9.94292594 L21.7084949,4.28457137 L21.5996804,16.5806111 C21.7084949,17.2334982 22.3069748,17.6687562 22.9598618,17.614349 C23.5039344,17.5599417 23.8847852,17.1246837 23.9935997,16.5806111 L24.0480069,4.23016412 L29.7063615,9.88851869 C30.1960268,10.3237767 30.9577284,10.3237767 31.3929864,9.88851869 Z" id="Shape"></path>
            <path d="M45.5388729,23.4903326 L45.6476874,23.3815181 L45.7020946,23.2182963 L45.7565019,23.163889 C45.8109091,23.0006673 45.8109091,22.8374455 45.7565019,22.728631 L45.7020946,22.6742237 L45.6476874,22.511002 L37.5410063,14.4587281 C37.051341,13.9690628 36.2896394,13.9690628 35.8543814,14.4587281 C35.3647161,14.9483934 35.3647161,15.710095 35.8543814,16.1453531 L41.5127359,21.8581149 L29.2711035,21.7493004 C28.6182164,21.6404859 28.0197366,22.1301512 27.9109221,22.7830382 C27.8021076,23.4359253 28.2917729,24.0344051 28.9446599,24.1432196 C29.0534744,24.1432196 29.1622889,24.1432196 29.2711035,24.1432196 L41.6215505,24.1976269 L35.9087886,29.8015742 C35.4191233,30.2912395 35.4191233,31.0529411 35.9087886,31.4881991 C36.3984539,31.9778644 37.1601555,31.9778644 37.5954136,31.4881991 L45.3212438,23.7623688 C45.3756511,23.7079616 45.4300583,23.6535543 45.4844656,23.5447398 L45.5388729,23.4903326 Z" id="Shape"></path>
            <path d="M31.3929864,36.0040013 C30.9033211,35.514336 30.1416195,35.514336 29.7063615,36.0040013 L24.0480069,41.6623559 L24.1024142,29.3119089 C23.9935997,28.6590218 23.3951199,28.2237638 22.7422328,28.278171 C22.1981602,28.3325783 21.8173095,28.7678363 21.7084949,29.3119089 L21.6540877,41.6623559 L15.9957331,36.0040013 C15.5060678,35.514336 14.7443662,35.514336 14.3091082,36.0040013 C13.8194429,36.4936666 13.8194429,37.2553682 14.3091082,37.6906262 L22.361382,45.7429001 L22.5246038,45.7973073 L22.579011,45.8517146 C22.7422328,45.9061218 22.9054546,45.9061218 23.0142691,45.8517146 L23.0686763,45.7973073 L23.2318981,45.7429001 L23.3951199,45.5796783 C23.4495271,45.525271 23.5583416,45.4708638 23.6127489,45.4164565 L31.3385792,37.636219 C31.7738372,37.2009609 31.8282445,36.4936666 31.3929864,36.0040013 Z" id="Shape"></path>
            <path d="M0.108814511,22.511002 L0.0544072555,22.6742237 L0,22.6742237 C0,22.8374455 0,23.0006673 0,23.163889 L0.0544072555,23.2182963 L0.108814511,23.3815181 L8.16108833,31.4337919 C8.65075362,31.9234572 9.4124552,31.9234572 9.84771325,31.4337919 C10.3373785,30.9441266 10.3373785,30.182425 9.84771325,29.7471669 L4.18935867,24.0344051 L16.4309912,24.1432196 C17.0838782,24.0344051 17.5191363,23.4359253 17.464729,22.7830382 C17.4103218,22.2389657 16.9750637,21.8581149 16.4309912,21.7493004 L4.08054416,21.6948931 L9.79330599,16.0909458 C10.2829713,15.6012805 10.2829713,14.8395789 9.79330599,14.4043209 C9.30364069,13.9690628 8.54193911,13.9146556 8.10668107,14.4043209 L0.380850789,22.0757439 C0.326443533,22.1301512 0.272036278,22.1845584 0.217629022,22.2933729 L0.108814511,22.511002 Z" id="Shape"></path>
        </g>
    </g>
</svg>