<?xml version="1.0" encoding="UTF-8" standalone="no"?>
<svg width="46px" height="46px" viewBox="0 0 46 46" version="1.1" xmlns="http://www.w3.org/2000/svg" xmlns:xlink="http://www.w3.org/1999/xlink">
    <!-- Generator: Sketch 49.2 (51160) - http://www.bohemiancoding.com/sketch -->
    <title>Slice 1</title>
    <desc>Created with Sketch.</desc>
    <defs></defs>
    <g id="Page-1" stroke="none" stroke-width="1" fill="none" fill-rule="evenodd">
        <g id="Group" fill="#4A4A4A" fill-rule="nonzero">
            <path d="M14.111116,1.88148214 L10.3481518,1.88148214 C9.82886269,1.88148214 9.40741069,2.30293414 9.40741069,2.82222321 C9.40741069,3.34151228 9.82886269,3.76296427 10.3481518,3.76296427 L14.111116,3.76296427 C14.6322866,3.76296427 15.0518571,3.34151228 15.0518571,2.82222321 C15.0518571,2.30293414 14.6322866,1.88148214 14.111116,1.88148214 Z" id="Shape"></path>
            <path d="M25.4000089,1.88148214 L21.6370446,1.88148214 C21.1177555,1.88148214 20.6963035,2.30293414 20.6963035,2.82222321 C20.6963035,3.34151228 21.1177555,3.76296427 21.6370446,3.76296427 L25.4000089,3.76296427 C25.9211794,3.76296427 26.3407499,3.34151228 26.3407499,2.82222321 C26.3407499,2.30293414 25.9211794,1.88148214 25.4000089,1.88148214 Z" id="Shape"></path>
            <path d="M14.111116,31.0444553 L10.3481518,31.0444553 C9.82886269,31.0444553 9.40741069,31.4659073 9.40741069,31.9851963 C9.40741069,32.5044854 9.82886269,32.9259374 10.3481518,32.9259374 L14.111116,32.9259374 C14.6322866,32.9259374 15.0518571,32.5044854 15.0518571,31.9851963 C15.0518571,31.4659073 14.6322866,31.0444553 14.111116,31.0444553 Z" id="Shape"></path>
            <path d="M25.4000089,31.0444553 L21.6370446,31.0444553 C21.1177555,31.0444553 20.6963035,31.4659073 20.6963035,31.9851963 C20.6963035,32.5044854 21.1177555,32.9259374 21.6370446,32.9259374 L25.4000089,32.9259374 C25.9192979,32.9259374 26.3407499,32.5044854 26.3407499,31.9851963 C26.3407499,31.4659073 25.9211794,31.0444553 25.4000089,31.0444553 Z" id="Shape"></path>
            <path d="M1.88148214,25.4000089 C1.88148214,25.9192979 2.30293414,26.3407499 2.82222321,26.3407499 C3.34151228,26.3407499 3.76296427,25.9192979 3.76296427,25.4000089 L3.76296427,21.6370446 C3.76296427,21.1177555 3.34339376,20.6963035 2.82222321,20.6963035 C2.30105265,20.6963035 1.88148214,21.1177555 1.88148214,21.6370446 L1.88148214,25.4000089 Z" id="Shape"></path>
            <path d="M2.82222321,15.0518571 C3.34339376,15.0518571 3.76296427,14.6304051 3.76296427,14.111116 L3.76296427,10.3481518 C3.76296427,9.82886269 3.34339376,9.40741069 2.82222321,9.40741069 C2.30105265,9.40741069 1.88148214,9.82886269 1.88148214,10.3481518 L1.88148214,14.111116 C1.88148214,14.6304051 2.30293414,15.0518571 2.82222321,15.0518571 Z" id="Shape"></path>
            <path d="M32.9259374,20.6963035 C32.4066483,20.6963035 31.9851963,21.1177555 31.9851963,21.6370446 L31.9851963,25.4000089 C31.9851963,25.9192979 32.4066483,26.3407499 32.9259374,26.3407499 C33.4452265,26.3407499 33.8666785,25.9192979 33.8666785,25.4000089 L33.8666785,21.6370446 C33.8666785,21.1177555 33.447108,20.6963035 32.9259374,20.6963035 Z" id="Shape"></path>
            <path d="M33.8666785,10.3481518 C33.8666785,9.82886269 33.447108,9.40741069 32.9259374,9.40741069 C32.4047669,9.40741069 31.9851963,9.82886269 31.9851963,10.3481518 L31.9851963,14.111116 C31.9851963,14.6304051 32.4066483,15.0518571 32.9259374,15.0518571 C33.4452265,15.0518571 33.8666785,14.6304051 33.8666785,14.111116 L33.8666785,10.3481518 Z" id="Shape"></path>
            <path d="M31.0444553,5.64444641 L34.8074195,5.64444641 C35.3285901,5.64444641 35.7481606,5.22299441 35.7481606,4.70370534 L35.7481606,0.940741069 C35.7481606,0.421451999 35.3285901,0 34.8074195,0 L31.0444553,0 C30.5251662,0 30.1037142,0.421451999 30.1037142,0.940741069 L30.1037142,4.70370534 C30.1037142,5.22299441 30.5251662,5.64444641 31.0444553,5.64444641 Z" id="Shape"></path>
            <path d="M4.70370534,0 L0.940741069,0 C0.421451999,0 0,0.421451999 0,0.940741069 L0,4.70370534 C0,5.22299441 0.421451999,5.64444641 0.940741069,5.64444641 L4.70370534,5.64444641 C5.2248759,5.64444641 5.64444641,5.22299441 5.64444641,4.70370534 L5.64444641,0.940741069 C5.64444641,0.421451999 5.2248759,0 4.70370534,0 Z" id="Shape"></path>
            <path d="M4.70370534,29.1629731 L0.940741069,29.1629731 C0.421451999,29.1629731 0,29.5844251 0,30.1037142 L0,33.8666785 C0,34.3859675 0.421451999,34.8074195 0.940741069,34.8074195 L4.70370534,34.8074195 C5.2248759,34.8074195 5.64444641,34.3859675 5.64444641,33.8666785 L5.64444641,30.1037142 C5.64444641,29.5844251 5.2248759,29.1629731 4.70370534,29.1629731 Z" id="Shape"></path>
            <path d="M44.6720304,33.9852118 L27.7386912,24.5778012 C27.3887355,24.3840085 26.9559946,24.4310456 26.6606019,24.6944531 C26.3614462,24.9578606 26.2598462,25.3793126 26.4084833,25.7499645 L33.9344118,44.5647859 C34.075523,44.9185045 34.4160713,45.1518083 34.7961306,45.1555713 C34.7998936,45.1555713 34.8036566,45.1555713 34.8074195,45.1555713 C35.183716,45.1555713 35.5242642,44.9316749 35.6729013,44.5854822 L38.3464874,38.3464874 L44.5854822,35.6729013 C44.9147416,35.5317902 45.134875,35.2138197 45.1536898,34.8563381 C45.1725046,34.4988565 44.9843564,34.1601897 44.6720304,33.9852118 Z" id="Shape"></path>
        </g>
    </g>
</svg>