<?xml version="1.0" encoding="UTF-8" standalone="no"?>
<svg width="56px" height="54px" viewBox="0 0 56 54" version="1.1" xmlns="http://www.w3.org/2000/svg" xmlns:xlink="http://www.w3.org/1999/xlink">
    <!-- Generator: Sketch 49.2 (51160) - http://www.bohemiancoding.com/sketch -->
    <title>Slice 1</title>
    <desc>Created with Sketch.</desc>
    <defs></defs>
    <g id="Page-1" stroke="none" stroke-width="1" fill="none" fill-rule="evenodd">
        <g id="Group-6" fill="#000000" fill-rule="nonzero">
            <path d="M49.0984717,2.18629752 C48.8912497,1.9951106 48.6957457,1.81564159 48.5181269,1.64850722 C47.4191104,0.619181507 45.6947278,0.674070655 44.6641686,1.77308708 C43.6342261,2.87148678 43.6903487,4.59771965 44.7887484,5.62704536 C44.9774684,5.80404745 45.1846904,5.99461764 45.404247,6.19752247 C49.0232304,9.53034221 49.7016356,10.8637168 49.6399624,11.3737542 C49.6399624,11.3737542 49.6220771,11.4089079 49.5560868,11.4761317 C48.3331073,12.7182299 45.8686462,11.0000146 45.1427526,10.444339 C44.6302483,10.0527142 43.7489383,9.17387111 42.815206,8.24383925 C39.42318,4.86414788 35.2034997,0.659885819 30.9702512,0.659885819 C30.9585333,0.659885819 30.9455819,0.659885819 30.9332473,0.659885819 C29.316176,0.669136799 27.8520542,1.29573651 26.6999988,2.47122771 C25.3290036,3.86935916 24.6666334,5.55858811 24.7831958,7.3563619 C24.9941181,10.5991388 27.7280911,13.0309131 28.3768931,13.5637695 C37.5261124,22.0771381 37.03211,24.185128 37.006824,24.2696203 C37.006824,24.2696203 36.9889388,24.3090912 36.9118473,24.3874161 C36.7996021,24.5015116 36.7373122,24.537282 36.7385456,24.5403657 C36.4881524,24.5761361 35.0258808,24.4657411 29.504896,19.4782294 C24.0388002,14.5400563 20.3377915,14.4802333 18.1958812,15.2986366 C16.2112377,16.0578337 14.8846471,17.8426561 14.6490555,20.0727591 C14.2623645,23.7299798 17.2997696,27.0695836 18.4234553,28.1692168 C17.4965071,31.100544 15.6253423,33.6402464 14.9648223,34.476535 C11.1114807,32.8070414 8.30905051,31.9941887 6.40458209,31.9941887 C5.17420174,31.9941887 4.5587032,32.3352415 4.15104335,32.5609654 C4.0653176,32.6084537 3.9900763,32.6522417 3.91606846,32.6818448 C2.33970146,33.3220127 1.78464266,35.8462967 1.72666985,36.1324604 L0.0947969723,44.2172002 C0.0898631163,44.2616049 -0.0088140041,45.3205338 0.973640075,46.0846647 C1.74825547,46.6872119 10.1136083,52.3198253 10.4910483,52.5733021 C11.3717416,53.1036916 12.3134914,53.3725868 13.2910116,53.3725868 C13.2910116,53.3725868 13.2910116,53.3725868 13.2910116,53.3725868 C17.4699877,53.3725868 21.1882649,48.5102717 22.5882466,46.6791944 L22.8503577,46.3381416 C24.2139521,44.5983406 24.5790575,41.8853365 24.1504287,40.9744233 C23.7224167,40.0647436 21.9986508,39.6540001 21.657598,39.580609 C21.5206835,39.5503891 21.3794518,39.5787588 21.2641229,39.6570838 L20.1200851,40.4310824 C22.460583,35.9172209 23.9025025,31.066007 24.4106896,25.9822851 C24.6364135,23.7238125 22.6634879,22.7740452 22.5956473,22.7425919 C22.5561765,22.7228565 22.1984719,22.5470878 21.7020027,22.5470878 C21.4812126,22.5470878 21.2147844,22.5840918 20.9329379,22.6975705 C20.4080989,21.9291224 20.0207912,21.1397054 20.0732135,20.6463198 C20.0898652,20.4865862 20.1342699,20.4020939 20.1342699,20.3971601 C20.4099491,20.2448273 22.2959156,20.3151347 25.8501421,23.5252248 C29.0182944,26.387478 33.0356867,30.0169459 36.7576643,30.0163291 C38.1656635,30.0157124 39.5323416,29.496424 40.7935585,28.2185553 C41.9209446,27.0763677 42.4994392,25.6424658 42.465519,24.0716494 C42.3902777,20.5920474 39.2671468,16.2354525 32.022396,9.50443946 C31.9749076,9.46065149 31.9126177,9.40761254 31.8620457,9.36690823 C31.2033759,8.83713544 30.2690269,7.71838358 30.2264724,6.99680714 C30.2203051,6.89504636 30.2079704,6.68412402 30.5958949,6.2887988 C30.7630292,6.11858077 30.858006,6.11673057 30.9751851,6.11241345 C32.9518111,6.11241345 37.0142248,10.1606423 38.9674151,12.1070485 C40.0769159,13.2122323 41.0353175,14.1675501 41.8309018,14.7762646 C46.0974537,18.0412438 50.5471751,18.2429152 53.4433486,15.3035705 C54.5565499,14.1737175 55.1251768,12.7694187 55.0881729,11.2423902 C54.99813,7.61908973 51.4482206,4.34979339 49.0984717,2.18629752 Z M21.6051757,23.5850478 C21.6378625,23.5819641 21.6680824,23.5702462 21.7013859,23.5702462 C21.9511624,23.5702462 22.1343318,23.655972 22.1435828,23.6602891 C22.2009389,23.688042 23.5454146,24.3528791 23.3930818,25.881141 C22.828772,31.5291727 21.082187,36.881173 18.2026653,41.7891263 C18.0817858,41.9951148 18.1200232,42.2572259 18.2939416,42.4206599 C18.46786,42.5840939 18.7318213,42.6056795 18.9304091,42.4712319 L21.6514306,40.6309036 C22.3378534,40.8085224 23.1001341,41.1446414 23.2253307,41.4110696 C23.4701733,41.9315914 23.2018949,44.2332352 22.0461391,45.7084582 L21.7760105,46.058762 C20.4599044,47.7794443 16.9648842,52.3506619 13.2910116,52.3506619 C12.5022114,52.3506619 11.7380804,52.1311053 11.0405565,51.7117275 C8.0370717,49.69008 2.19908656,45.7429952 1.60147325,45.278596 C1.09390282,44.8838875 1.10932112,44.3713832 1.10500399,44.3713832 C1.10500399,44.3713832 1.10438726,44.3719999 1.10438726,44.3726167 L2.72885935,36.3359819 C2.84788863,35.75132 3.39184626,33.9991844 4.30090923,33.6297619 C4.40883733,33.585974 4.52108255,33.5255342 4.64689588,33.4558435 C4.99966659,33.2603395 5.43816304,33.017347 6.40458209,33.017347 C8.19742202,33.017347 11.0590585,33.875838 14.9105499,35.5693841 C15.1153049,35.6594269 15.3570638,35.6057713 15.503846,35.4343198 C15.6265757,35.2912379 18.0540329,32.4289847 19.2819463,28.8340539 C19.5292558,28.1093938 19.7327774,27.3569807 19.8530401,26.5885327 C20.147838,24.7149008 20.7688871,23.6621393 21.6051757,23.5850478 Z" id="Shape"></path>
        </g>
    </g>
</svg>