<?xml version="1.0" encoding="utf-8"?>
<!-- Generator: Adobe Illustrator 21.1.0, SVG Export Plug-In . SVG Version: 6.00 Build 0)  -->
<svg version="1.1" id="Layer_1" xmlns="http://www.w3.org/2000/svg" xmlns:xlink="http://www.w3.org/1999/xlink" x="0px" y="0px"
	 viewBox="0 0 795.3 1113.5" style="enable-background:new 0 0 795.3 1113.5;" xml:space="preserve">
<style type="text/css">
	.st0{fill:#fee9cc; }
</style>
<path class="st0" d="M 81.4 185.3 c 0 0 0 -1.6 0 -4.6 c 17.2 -9.8 36.8 -25.7 30.4 -48.5 c -2.7 -8.5 -9.5 -17.5 -19.6 -17 c -4.2 0.5 -8.5 2.1 
-10.1 6.4 c -1.1 4.8 -1.1 10.6 -6.4 13.3 c -7.4 3.2 -15.4 0 -20.1 -6.4 C 38.2 103.6 62 81.3 81.4 69.3 c 0 -2.5 0 -4.9 0 -6.9 c 0 -6.1 0 -9.8
 0 -9.8 c 0 -0.7 0.6 -1.2 1.2 -1.2 c 0 0 1.6 0 4.6 0 c 1.5 0 3.2 0.2 5.4 2.3 c 10 13.6 31.2 22.6 45.6 9.9 c 5.3 -4.8 5.3 -12.2 8.5 -18.6 
 c 4.2 -9.5 15.9 -12.7 26 -11.1 c 11.1 2.1 18.6 10.1 26 17.5 c 2.5 0 4.9 0 6.9 0 c 6.1 0 9.8 0 9.8 0 c 0.7 0 1.2 0.6 1.2 1.2 c 0 0 0 5 0
 13.1 c -1.4 1.2 -3.7 2.6 -7.5 4.4 c -15.6 7 -27.3 22.9 -25.1 40.4 c 1.1 8 4.8 14.8 11.7 19.6 c 6.9 4.8 19.1 4.8 20.7 -4.8 c 1.1 -5.3
 -1.6 -11.7 3.7 -15.4 c 3.2 -2.1 6.9 -2.7 10.6 -2.1 c 14.8 3.2 20.7 18 18.6 31.8 c -2.7 15.4 -14.3 27 -28 32.2 c -3.6 1.5 -4.4 2.6 
 -4.6 3.6 c 0 6.1 0 9.8 0 9.8 c 0 0.7 -0.6 1.2 -1.2 1.2 c 0 0 -1.6 0 -4.6 0 c -1.5 0 -3.2 -0.1 -5.3 -0.4 c -1.5 -4.1 -3.6 -8.1 -6.2
 -11.8 c -1.3 -1.8 -2.7 -3.5 -4.2 -5.1 c -2.7 -6.3 -11.7 -6.8 -16.7 -10.8 c -2.1 -0.7 -4.3 -1.2 -6.5 -1.5 c -2.2 -0.3 -4.5 -0.3 -6.8
 -0.1 c -7.4 0.5 -14.3 4.2 -18.6 11.1 c -3.2 5.8 -3.2 12.7 2.1 16.4 c 3.7 2.7 8.5 3.7 10.6 8 c 3.2 6.4 -0.5 13.8 -5.3 18 c -20.1 15.9
 -45.1 -1.1 -54.5 -20.8 c -2.7 -2.7 -5 -2.9 -7 -3.1 c -6.1 0 -9.8 0 -9.8 0 C 82 186.5 81.4 186 81.4 185.3 Z"/>
</svg>






