<?xml version="1.0" encoding="utf-8"?>
<!-- Generator: Adobe Illustrator 21.1.0, SVG Export Plug-In . SVG Version: 6.00 Build 0)  -->
<svg version="1.1" id="Layer_1" xmlns="http://www.w3.org/2000/svg" xmlns:xlink="http://www.w3.org/1999/xlink" x="0px" y="0px"
	 viewBox="0 0 795.3 1113.5" style="enable-background:new 0 0 795.3 1113.5;" xml:space="preserve">
<style type="text/css">
	.st0{fill:#fee9cc; }
</style>
<path class="st0" d="M 378.6 98.6 c 4.9 6.2 9.9 12.4 15 18.6 s 10.2 12.3 15.2 18.5 c 3.5 4 6.8 8.2 9.9 12.5 c 5 7.4 10 15 14.4 22.9 C 440 178 444 190 436 198 c -23 20 -51 30 -72.4 52.3 c -5.7 3.2 -11.3 6.8 -16.8 10.7 c -9.1 6.5 -17.4 14 -24.9 22.4 c -3.7 4.2 -7.3 8.6 -10.6 13.3 C 286 330 272 368 256.5 406.5 c -3.3 4.6 -7.1 9 -11.3 13.1 c -4.2 4.1 -8.6 7.9 -13.2 11.4 c -3 3 -7 5 -11 4.4 c -4.7 -0.1 -11.7 -1.9 -20.3 -4.9 c -8.2 -2.9 -9.6 -5.2 -12.8 -8.9 C 184 411 175 400 178 389 c 11.2 -36.9 5.1 -73.4 -12.5 -103.8 c -3.5 -6.1 -7.5 -11.9 -11.9 -17.4 c -3.3 -4.9 -7.4 -9 -11.2 -13.2 C 132 242 124 228 115.6 214.5 c -5.3 -8.7 -10.5 -17.4 -16.3 -25.2 c -3.4 -4.7 -7 -9.2 -10.8 -13.6 c -7.6 -8.8 -16.1 -17 -25.4 -24.7 c -2 -2 -3 -6 -2.1 -9.4 c 1.3 -7.2 3.2 -14.4 5.7 -21.3 C 79.2 85.5 106 56.7 140 65 c 7.7 1.8 14.3 5.1 20.1 9.3 c 5.8 4.1 10.5 8.3 14.6 12.9 C 197 113 203 150 229 172 c 21 18 53 -6 75.9 -17.9 c 5.1 -3 10.7 -6.4 16.5 -10 c 5.8 -3.6 11.5 -7.4 17.1 -11.3 c 5.6 -4.8 10.3 -9.8 14.5 -17.2 C 353 115.6 360.8 94.7 378.6 98.6 Z"/>
</svg>






