<?xml version="1.0" encoding="utf-8"?>
<!-- Generator: Adobe Illustrator 21.1.0, SVG Export Plug-In . SVG Version: 6.00 Build 0)  -->
<svg version="1.1" id="Layer_1" xmlns="http://www.w3.org/2000/svg" xmlns:xlink="http://www.w3.org/1999/xlink" x="0px" y="0px"
	 viewBox="0 0 795.3 1113.5" style="enable-background:new 0 0 795.3 1113.5;" xml:space="preserve">
<style type="text/css">
	.st0{fill:#fee9cc; }
</style>
<path class="st0" d="M607.5,810.8c-39.5-42.4-64.3-104-129.7-105.8c-97.8-2.6-192.9,66.1-322.4-23.8S-3.2,329.8,187.1,271.6
	s190.3,222,266.9,222c76.6,0,58.1-155.9,150.6-155.9c66.1,0,55.2,60.1,64,107.7c9.1,48.8,45.6,82.1,74.3,119.9
	c34.6,45.5,43.5,97.5,51.5,153.2c8.9,61.6-58.1,143.9-126.1,129.7C642.9,842.8,623.9,828.5,607.5,810.8z"/>
</svg>
